<svg xmlns="http://www.w3.org/2000/svg" width="1180" height="496" viewBox="0 0 1180 496" font-family="system-ui, -apple-system, sans-serif">
<rect width="100%" height="100%" fill="#fcfcfb"/>
<text x="34" y="40" font-size="21" font-weight="600" fill="#1c1c1a">Forward speedup over Torch CPU</text>
<text x="34" y="63" font-size="13" fill="#6b6a65">Torch CPU median divided by MLX median, paired by repeat. Right of parity is faster.</text>
<circle cx="39" cy="84" r="5" fill="#eb6834"/>
<text x="50" y="88" font-size="12" fill="#6b6a65">MLX</text>
<circle cx="91.8" cy="84" r="5" fill="#1baf7a"/>
<text x="102.8" y="88" font-size="12" fill="#6b6a65">MLX + kernels</text>
<line x1="330.2" y1="106" x2="330.2" y2="428" stroke="#e6e5e1" stroke-width="1"/>
<text x="330.2" y="446" text-anchor="middle" font-size="11" fill="#6b6a65" font-variant-numeric="tabular-nums">1.00×</text>
<line x1="466.1" y1="106" x2="466.1" y2="428" stroke="#e6e5e1" stroke-width="1"/>
<text x="466.1" y="446" text-anchor="middle" font-size="11" fill="#6b6a65" font-variant-numeric="tabular-nums">2.00×</text>
<line x1="645.8" y1="106" x2="645.8" y2="428" stroke="#e6e5e1" stroke-width="1"/>
<text x="645.8" y="446" text-anchor="middle" font-size="11" fill="#6b6a65" font-variant-numeric="tabular-nums">5.00×</text>
<line x1="781.7" y1="106" x2="781.7" y2="428" stroke="#e6e5e1" stroke-width="1"/>
<text x="781.7" y="446" text-anchor="middle" font-size="11" fill="#6b6a65" font-variant-numeric="tabular-nums">10.00×</text>
<line x1="917.6" y1="106" x2="917.6" y2="428" stroke="#e6e5e1" stroke-width="1"/>
<text x="917.6" y="446" text-anchor="middle" font-size="11" fill="#6b6a65" font-variant-numeric="tabular-nums">20.00×</text>
<line x1="330.2" y1="102" x2="330.2" y2="428" stroke="#6b6a65" stroke-width="1"/>
<text x="330.2" y="96" text-anchor="middle" font-size="11" fill="#6b6a65">parity</text>
<text x="236" y="137.0" text-anchor="end" font-size="12" fill="#1c1c1a">full_tensor_product</text>
<line x1="614.5" y1="133.0" x2="616.9" y2="133.0" stroke="#e6e5e1" stroke-width="3" stroke-linecap="round"/>
<line class="error-bar" x1="613.2" y1="133.0" x2="625.0" y2="133.0" stroke="#eb6834" stroke-width="1" opacity="0.55"/>
<circle cx="614.5" cy="133.0" r="6.5" fill="#fcfcfb"/><circle cx="614.5" cy="133.0" r="5" fill="#eb6834"/>
<line class="error-bar" x1="614.2" y1="133.0" x2="622.0" y2="133.0" stroke="#1baf7a" stroke-width="1" opacity="0.55"/>
<circle cx="616.9" cy="133.0" r="6.5" fill="#fcfcfb"/><circle cx="616.9" cy="133.0" r="5" fill="#1baf7a"/>
<text x="603.5" y="137.0" text-anchor="end" font-size="11" fill="#6b6a65" font-variant-numeric="tabular-nums">4.26×</text>
<text x="627.9" y="137.0" font-size="11" fill="#1c1c1a" font-variant-numeric="tabular-nums">4.32×</text>
<rect x="250" y="150.0" width="740" height="34" fill="#00000006"/>
<text x="236" y="171.0" text-anchor="end" font-size="12" fill="#1c1c1a">fully_connected_tensor_product</text>
<line x1="638.0" y1="167.0" x2="645.7" y2="167.0" stroke="#e6e5e1" stroke-width="3" stroke-linecap="round"/>
<line class="error-bar" x1="634.5" y1="167.0" x2="644.2" y2="167.0" stroke="#eb6834" stroke-width="1" opacity="0.55"/>
<circle cx="638.0" cy="167.0" r="6.5" fill="#fcfcfb"/><circle cx="638.0" cy="167.0" r="5" fill="#eb6834"/>
<line class="error-bar" x1="641.4" y1="167.0" x2="645.8" y2="167.0" stroke="#1baf7a" stroke-width="1" opacity="0.55"/>
<circle cx="645.7" cy="167.0" r="6.5" fill="#fcfcfb"/><circle cx="645.7" cy="167.0" r="5" fill="#1baf7a"/>
<text x="627.0" y="171.0" text-anchor="end" font-size="11" fill="#6b6a65" font-variant-numeric="tabular-nums">4.81×</text>
<text x="656.7" y="171.0" font-size="11" fill="#1c1c1a" font-variant-numeric="tabular-nums">5.00×</text>
<text x="236" y="205.0" text-anchor="end" font-size="12" fill="#1c1c1a">gate_points_2102</text>
<line x1="699.1" y1="201.0" x2="699.9" y2="201.0" stroke="#e6e5e1" stroke-width="3" stroke-linecap="round"/>
<line class="error-bar" x1="694.6" y1="201.0" x2="700.4" y2="201.0" stroke="#eb6834" stroke-width="1" opacity="0.55"/>
<circle cx="699.1" cy="201.0" r="6.5" fill="#fcfcfb"/><circle cx="699.1" cy="201.0" r="5" fill="#eb6834"/>
<line class="error-bar" x1="697.5" y1="201.0" x2="701.9" y2="201.0" stroke="#1baf7a" stroke-width="1" opacity="0.55"/>
<circle cx="699.9" cy="201.0" r="6.5" fill="#fcfcfb"/><circle cx="699.9" cy="201.0" r="5" fill="#1baf7a"/>
<text x="688.1" y="205.0" text-anchor="end" font-size="11" fill="#6b6a65" font-variant-numeric="tabular-nums">6.56×</text>
<text x="710.9" y="205.0" font-size="11" fill="#1c1c1a" font-variant-numeric="tabular-nums">6.59×</text>
<rect x="250" y="218.0" width="740" height="34" fill="#00000006"/>
<text x="236" y="239.0" text-anchor="end" font-size="12" fill="#1c1c1a">linear</text>
<line x1="505.8" y1="235.0" x2="508.2" y2="235.0" stroke="#e6e5e1" stroke-width="3" stroke-linecap="round"/>
<line class="error-bar" x1="502.3" y1="235.0" x2="507.6" y2="235.0" stroke="#eb6834" stroke-width="1" opacity="0.55"/>
<circle cx="505.8" cy="235.0" r="6.5" fill="#fcfcfb"/><circle cx="505.8" cy="235.0" r="5" fill="#eb6834"/>
<line class="error-bar" x1="506.5" y1="235.0" x2="509.0" y2="235.0" stroke="#1baf7a" stroke-width="1" opacity="0.55"/>
<circle cx="508.2" cy="235.0" r="6.5" fill="#fcfcfb"/><circle cx="508.2" cy="235.0" r="5" fill="#1baf7a"/>
<text x="494.8" y="239.0" text-anchor="end" font-size="11" fill="#6b6a65" font-variant-numeric="tabular-nums">2.45×</text>
<text x="519.2" y="239.0" font-size="11" fill="#1c1c1a" font-variant-numeric="tabular-nums">2.48×</text>
<text x="236" y="273.0" text-anchor="end" font-size="12" fill="#1c1c1a">scatter_sum</text>
<line x1="617.9" y1="269.0" x2="624.0" y2="269.0" stroke="#e6e5e1" stroke-width="3" stroke-linecap="round"/>
<line class="error-bar" x1="614.9" y1="269.0" x2="623.5" y2="269.0" stroke="#eb6834" stroke-width="1" opacity="0.55"/>
<circle cx="617.9" cy="269.0" r="6.5" fill="#fcfcfb"/><circle cx="617.9" cy="269.0" r="5" fill="#eb6834"/>
<line class="error-bar" x1="617.9" y1="269.0" x2="624.4" y2="269.0" stroke="#1baf7a" stroke-width="1" opacity="0.55"/>
<circle cx="624.0" cy="269.0" r="6.5" fill="#fcfcfb"/><circle cx="624.0" cy="269.0" r="5" fill="#1baf7a"/>
<text x="606.9" y="273.0" text-anchor="end" font-size="11" fill="#6b6a65" font-variant-numeric="tabular-nums">4.34×</text>
<text x="635.0" y="273.0" font-size="11" fill="#1c1c1a" font-variant-numeric="tabular-nums">4.47×</text>
<rect x="250" y="286.0" width="740" height="34" fill="#00000006"/>
<text x="236" y="307.0" text-anchor="end" font-size="12" fill="#1c1c1a">spherical_harmonics</text>
<line x1="331.2" y1="303.0" x2="903.9" y2="303.0" stroke="#e6e5e1" stroke-width="3" stroke-linecap="round"/>
<line class="error-bar" x1="322.8" y1="303.0" x2="331.7" y2="303.0" stroke="#eb6834" stroke-width="1" opacity="0.55"/>
<circle cx="331.2" cy="303.0" r="6.5" fill="#fcfcfb"/><circle cx="331.2" cy="303.0" r="5" fill="#eb6834"/>
<line class="error-bar" x1="900.7" y1="303.0" x2="917.2" y2="303.0" stroke="#1baf7a" stroke-width="1" opacity="0.55"/>
<circle cx="903.9" cy="303.0" r="6.5" fill="#fcfcfb"/><circle cx="903.9" cy="303.0" r="5" fill="#1baf7a"/>
<text x="320.2" y="307.0" text-anchor="end" font-size="11" fill="#6b6a65" font-variant-numeric="tabular-nums">1.00×</text>
<text x="914.9" y="307.0" font-size="11" fill="#1c1c1a" font-variant-numeric="tabular-nums">18.65×</text>
<text x="236" y="341.0" text-anchor="end" font-size="12" fill="#1c1c1a">v2106_attributed_network</text>
<line x1="664.0" y1="337.0" x2="774.3" y2="337.0" stroke="#e6e5e1" stroke-width="3" stroke-linecap="round"/>
<line class="error-bar" x1="663.5" y1="337.0" x2="673.9" y2="337.0" stroke="#eb6834" stroke-width="1" opacity="0.55"/>
<circle cx="664.0" cy="337.0" r="6.5" fill="#fcfcfb"/><circle cx="664.0" cy="337.0" r="5" fill="#eb6834"/>
<line class="error-bar" x1="774.0" y1="337.0" x2="775.4" y2="337.0" stroke="#1baf7a" stroke-width="1" opacity="0.55"/>
<circle cx="774.3" cy="337.0" r="6.5" fill="#fcfcfb"/><circle cx="774.3" cy="337.0" r="5" fill="#1baf7a"/>
<text x="653.0" y="341.0" text-anchor="end" font-size="11" fill="#6b6a65" font-variant-numeric="tabular-nums">5.49×</text>
<text x="785.3" y="341.0" font-size="11" fill="#1c1c1a" font-variant-numeric="tabular-nums">9.63×</text>
<rect x="250" y="354.0" width="740" height="34" fill="#00000006"/>
<text x="236" y="375.0" text-anchor="end" font-size="12" fill="#1c1c1a">v2106_simple_network</text>
<line x1="677.5" y1="371.0" x2="798.7" y2="371.0" stroke="#e6e5e1" stroke-width="3" stroke-linecap="round"/>
<line class="error-bar" x1="673.7" y1="371.0" x2="680.5" y2="371.0" stroke="#eb6834" stroke-width="1" opacity="0.55"/>
<circle cx="677.5" cy="371.0" r="6.5" fill="#fcfcfb"/><circle cx="677.5" cy="371.0" r="5" fill="#eb6834"/>
<line class="error-bar" x1="792.2" y1="371.0" x2="802.4" y2="371.0" stroke="#1baf7a" stroke-width="1" opacity="0.55"/>
<circle cx="798.7" cy="371.0" r="6.5" fill="#fcfcfb"/><circle cx="798.7" cy="371.0" r="5" fill="#1baf7a"/>
<text x="666.5" y="375.0" text-anchor="end" font-size="11" fill="#6b6a65" font-variant-numeric="tabular-nums">5.88×</text>
<text x="809.7" y="375.0" font-size="11" fill="#1c1c1a" font-variant-numeric="tabular-nums">10.90×</text>
<text x="236" y="409.0" text-anchor="end" font-size="12" fill="#1c1c1a">weighted_tensor_product_uvu</text>
<line x1="605.1" y1="405.0" x2="868.2" y2="405.0" stroke="#e6e5e1" stroke-width="3" stroke-linecap="round"/>
<line class="error-bar" x1="600.1" y1="405.0" x2="607.8" y2="405.0" stroke="#eb6834" stroke-width="1" opacity="0.55"/>
<circle cx="605.1" cy="405.0" r="6.5" fill="#fcfcfb"/><circle cx="605.1" cy="405.0" r="5" fill="#eb6834"/>
<line class="error-bar" x1="866.7" y1="405.0" x2="869.5" y2="405.0" stroke="#1baf7a" stroke-width="1" opacity="0.55"/>
<circle cx="868.2" cy="405.0" r="6.5" fill="#fcfcfb"/><circle cx="868.2" cy="405.0" r="5" fill="#1baf7a"/>
<text x="594.1" y="409.0" text-anchor="end" font-size="11" fill="#6b6a65" font-variant-numeric="tabular-nums">4.06×</text>
<text x="879.2" y="409.0" font-size="11" fill="#1c1c1a" font-variant-numeric="tabular-nums">15.55×</text>
<text x="34" y="480" font-size="11" fill="#6b6a65">Log scale. Dots are medians of n=5 independent runs; the faint bar through a dot is the between-run IQR.</text>
</svg>
